# xmcd CD database file
#
# Track frame offsets:
#	150
#	10827
#	26455
#	39762
#	53020
#	71387
#	84407
#	96662
#	113410
#	128540
#	144150
#	154255
#	164265
#	177322
#	189482
#	199957
#	212090
#	222805
#	236650
#	251197
#	263400
#	273992
#
# Disc length: 3790 seconds
#
# Revision: 1
# Processed by: cddbd v1.5.1PL0 Copyright (c) Steve Scherf et al.
# Submitted via: CDex 1.51
#
DISCID=260ecc16
DTITLE=Joe Pass - Simplicity - A Sign Of The Times
DYEAR=1966
DGENRE=Jazz
TTITLE0=You And Me
TTITLE1='Tis Autumn
TTITLE2=Luciana
TTITLE3=I Had The Craziest Dream
TTITLE4=Nobody Else But Me
TTITLE5=Simplicity
TTITLE6=The Sands Of Time
TTITLE7=Some Time Ago
TTITLE8=The Gentle Rain
TTITLE9=Who Can I Turn To (When Nobody Needs Me)
TTITLE10=Where Was I (Donde Estuve Yo)
TTITLE11=A Sign Of The Times
TTITLE12=The Phoenix Love Theme (Senza Fine)
TTITLE13=Nowhere Man
TTITLE14=Dindi
TTITLE15=A Summer Song
TTITLE16=Moment ot Moment
TTITLE17=It Was A Very Good Year
TTITLE18=Are You There (With Another Girl)
TTITLE19=What Now My Love (Et Maintenant)
TTITLE20=Softly As I Leave You
TTITLE21=Sweet September
EXTD=YEAR: 1966
EXTT0=
EXTT1=
EXTT2=
EXTT3=
EXTT4=
EXTT5=
EXTT6=
EXTT7=
EXTT8=
EXTT9=
EXTT10=
EXTT11=
EXTT12=
EXTT13=
EXTT14=
EXTT15=
EXTT16=
EXTT17=
EXTT18=
EXTT19=
EXTT20=
EXTT21=
PLAYORDER=
